<svg width="512" height="512" xmlns="http://www.w3.org/2000/svg">
 <title/>

 <g>
  <title>background</title>
  <rect fill="none" id="canvas_background" height="402" width="582" y="-1" x="-1"/>
 </g>
 <g>
  <title>Layer 1</title>
  <path fill="#0e0e0e" id="svg_1" d="m256,0c-141.385,0 -256,114.615 -256,256s114.615,256 256,256s256,-114.615 256,-256s-114.615,-256 -256,-256zm133.059,161.936l-45.468,217.064a16.007,16.007 0 0 1 -25.177,9.593l-66.136,-48.861l-40.068,37.8a5.429,5.429 0 0 1 -7.74,-0.294l-0.861,-0.946l6.962,-67.375l125.484,-114.651a3.358,3.358 0 0 0 -4.061,-5.317l-160.479,101.57l-69.115,-23.212a9.393,9.393 0 0 1 -0.32,-17.694l270.42,-101.869a12.441,12.441 0 0 1 16.559,14.192z"/>
 </g>
</svg>